<mxfile host="65bd71144e">
    <diagram id="C5RBs43oDa-KdzZeNtuy" name="Page-1">
        <mxGraphModel dx="1688" dy="2158" grid="0" gridSize="10" guides="1" tooltips="1" connect="1" arrows="1" fold="1" page="0" pageScale="1" pageWidth="1169" pageHeight="827" background="#ffffff" math="0" shadow="0">
            <root>
                <mxCell id="WIyWlLk6GJQsqaUBKTNV-0"/>
                <mxCell id="96" value="Untitled Layer" parent="WIyWlLk6GJQsqaUBKTNV-0"/>
                <mxCell id="98" value="" style="rounded=1;whiteSpace=wrap;html=1;" parent="96" vertex="1">
                    <mxGeometry x="1266" y="-133" width="120" height="60" as="geometry"/>
                </mxCell>
                <mxCell id="99" value="" style="rounded=0;whiteSpace=wrap;html=1;strokeColor=none;" parent="96" vertex="1">
                    <mxGeometry x="231" y="-811" width="1869" height="927" as="geometry"/>
                </mxCell>
                <mxCell id="WIyWlLk6GJQsqaUBKTNV-1" parent="WIyWlLk6GJQsqaUBKTNV-0"/>
                <mxCell id="75" value="wswrl.rule" style="shape=folder;fontStyle=1;tabWidth=110;tabHeight=30;tabPosition=left;html=1;boundedLbl=1;labelInHeader=1;container=1;collapsible=0;recursiveResize=0;strokeColor=#6C8EBF;fontSize=12;fillColor=#dae8fc;" parent="WIyWlLk6GJQsqaUBKTNV-1" vertex="1">
                    <mxGeometry x="264" y="-661" width="1777" height="1150" as="geometry"/>
                </mxCell>
                <mxCell id="78" value="literal" style="shape=folder;fontStyle=1;tabWidth=110;tabHeight=30;tabPosition=left;html=1;boundedLbl=1;labelInHeader=1;container=1;collapsible=0;recursiveResize=0;strokeColor=#D6B656;fontSize=12;fillColor=#fff2cc;" parent="75" vertex="1">
                    <mxGeometry x="836" y="269" width="929" height="865" as="geometry"/>
                </mxCell>
                <mxCell id="114" value="builtin" style="shape=folder;fontStyle=1;tabWidth=50;tabHeight=22;tabPosition=left;html=1;boundedLbl=1;labelInHeader=1;container=1;collapsible=0;recursiveResize=0;" vertex="1" parent="78">
                    <mxGeometry x="636" y="653" width="276" height="188" as="geometry"/>
                </mxCell>
                <mxCell id="115" style="edgeStyle=orthogonalEdgeStyle;rounded=0;orthogonalLoop=1;jettySize=auto;html=1;endArrow=block;endFill=0;" edge="1" parent="114">
                    <mxGeometry relative="1" as="geometry">
                        <Array as="points">
                            <mxPoint x="178" y="104"/>
                            <mxPoint x="178" y="104"/>
                        </Array>
                        <mxPoint x="178.02857142857147" y="62" as="targetPoint"/>
                    </mxGeometry>
                </mxCell>
                <mxCell id="116" style="edgeStyle=orthogonalEdgeStyle;rounded=0;orthogonalLoop=1;jettySize=auto;html=1;endArrow=block;endFill=0;" edge="1" parent="114">
                    <mxGeometry relative="1" as="geometry">
                        <Array as="points">
                            <mxPoint x="111" y="79"/>
                            <mxPoint x="111" y="79"/>
                        </Array>
                        <mxPoint x="111" y="62" as="targetPoint"/>
                    </mxGeometry>
                </mxCell>
                <mxCell id="wH90IItwLwQUyDMC7U7Q-32" value="SameAs" style="swimlane;fontStyle=1;align=center;verticalAlign=top;childLayout=stackLayout;horizontal=1;startSize=40;horizontalStack=0;resizeParent=1;resizeParentMax=0;resizeLast=0;collapsible=1;marginBottom=0;whiteSpace=wrap;html=1;strokeColor=#635528;" parent="114" vertex="1">
                    <mxGeometry x="41" y="149" width="100" height="30" as="geometry"/>
                </mxCell>
                <mxCell id="wH90IItwLwQUyDMC7U7Q-33" value="DifferentFrom" style="swimlane;fontStyle=1;align=center;verticalAlign=top;childLayout=stackLayout;horizontal=1;startSize=40;horizontalStack=0;resizeParent=1;resizeParentMax=0;resizeLast=0;collapsible=1;marginBottom=0;whiteSpace=wrap;html=1;strokeColor=#635528;" parent="114" vertex="1">
                    <mxGeometry x="159" y="149" width="110" height="30" as="geometry"/>
                </mxCell>
                <mxCell id="wH90IItwLwQUyDMC7U7Q-72" value="&lt;i&gt;BuiltInLiteral&lt;/i&gt;" style="swimlane;fontStyle=1;align=center;verticalAlign=top;childLayout=stackLayout;horizontal=1;startSize=30;horizontalStack=0;resizeParent=1;resizeParentMax=0;resizeLast=0;collapsible=1;marginBottom=0;whiteSpace=wrap;html=1;strokeColor=#635528;" parent="114" vertex="1" collapsed="1">
                    <mxGeometry x="77" y="30" width="108" height="30" as="geometry">
                        <mxRectangle x="650" y="392" width="240" height="56" as="alternateBounds"/>
                    </mxGeometry>
                </mxCell>
                <mxCell id="35" style="edgeStyle=orthogonalEdgeStyle;rounded=0;jumpStyle=arc;html=1;fontSize=12;startArrow=none;startFill=0;endArrow=block;endFill=0;elbow=vertical;" parent="114" source="wH90IItwLwQUyDMC7U7Q-33" target="wH90IItwLwQUyDMC7U7Q-72" edge="1">
                    <mxGeometry relative="1" as="geometry">
                        <Array as="points">
                            <mxPoint x="170" y="116"/>
                            <mxPoint x="170" y="116"/>
                        </Array>
                    </mxGeometry>
                </mxCell>
                <mxCell id="13" style="edgeStyle=orthogonalEdgeStyle;rounded=0;html=1;startArrow=none;startFill=0;endArrow=block;endFill=0;elbow=vertical;" parent="114" source="wH90IItwLwQUyDMC7U7Q-32" target="wH90IItwLwQUyDMC7U7Q-72" edge="1">
                    <mxGeometry relative="1" as="geometry">
                        <Array as="points">
                            <mxPoint x="92" y="111"/>
                            <mxPoint x="92" y="111"/>
                        </Array>
                    </mxGeometry>
                </mxCell>
                <mxCell id="108" value="binary" style="shape=folder;fontStyle=1;tabWidth=55;tabHeight=23;tabPosition=left;html=1;boundedLbl=1;labelInHeader=1;container=1;collapsible=0;recursiveResize=0;" vertex="1" parent="78">
                    <mxGeometry x="301" y="653" width="325" height="188" as="geometry"/>
                </mxCell>
                <mxCell id="112" style="edgeStyle=orthogonalEdgeStyle;rounded=0;orthogonalLoop=1;jettySize=auto;html=1;endArrow=block;endFill=0;" edge="1" parent="108" source="110">
                    <mxGeometry relative="1" as="geometry">
                        <Array as="points">
                            <mxPoint x="178" y="104"/>
                            <mxPoint x="178" y="104"/>
                        </Array>
                        <mxPoint x="178.02857142857147" y="62" as="targetPoint"/>
                    </mxGeometry>
                </mxCell>
                <mxCell id="113" style="edgeStyle=orthogonalEdgeStyle;rounded=0;orthogonalLoop=1;jettySize=auto;html=1;endArrow=block;endFill=0;" edge="1" parent="108" source="109">
                    <mxGeometry relative="1" as="geometry">
                        <Array as="points">
                            <mxPoint x="111" y="79"/>
                            <mxPoint x="111" y="79"/>
                        </Array>
                        <mxPoint x="111" y="62" as="targetPoint"/>
                    </mxGeometry>
                </mxCell>
                <mxCell id="wH90IItwLwQUyDMC7U7Q-70" value="&lt;i&gt;BinaryLiteral&lt;/i&gt;" style="swimlane;fontStyle=1;align=center;verticalAlign=top;childLayout=stackLayout;horizontal=1;startSize=30;horizontalStack=0;resizeParent=1;resizeParentMax=0;resizeLast=0;collapsible=1;marginBottom=0;whiteSpace=wrap;html=1;strokeColor=#635528;" parent="108" vertex="1" collapsed="1">
                    <mxGeometry x="99" y="31" width="108" height="30" as="geometry">
                        <mxRectangle x="340" y="392" width="220" height="56" as="alternateBounds"/>
                    </mxGeometry>
                </mxCell>
                <mxCell id="wH90IItwLwQUyDMC7U7Q-36" value="OWLIndividualProperty" style="swimlane;fontStyle=1;align=center;verticalAlign=top;childLayout=stackLayout;horizontal=1;startSize=40;horizontalStack=0;resizeParent=1;resizeParentMax=0;resizeLast=0;collapsible=1;marginBottom=0;whiteSpace=wrap;html=1;strokeColor=#635528;" parent="108" vertex="1">
                    <mxGeometry x="11" y="148" width="150" height="30" as="geometry"/>
                </mxCell>
                <mxCell id="34" style="edgeStyle=orthogonalEdgeStyle;rounded=0;jumpStyle=arc;html=1;fontSize=12;startArrow=none;startFill=0;endArrow=block;endFill=0;elbow=vertical;" parent="108" source="wH90IItwLwQUyDMC7U7Q-36" target="wH90IItwLwQUyDMC7U7Q-70" edge="1">
                    <mxGeometry relative="1" as="geometry">
                        <Array as="points">
                            <mxPoint x="116" y="139"/>
                            <mxPoint x="116" y="139"/>
                        </Array>
                    </mxGeometry>
                </mxCell>
                <mxCell id="wH90IItwLwQUyDMC7U7Q-38" value="OWLDataProperty" style="swimlane;fontStyle=1;align=center;verticalAlign=top;childLayout=stackLayout;horizontal=1;startSize=40;horizontalStack=0;resizeParent=1;resizeParentMax=0;resizeLast=0;collapsible=1;marginBottom=0;whiteSpace=wrap;html=1;strokeColor=#635528;" parent="108" vertex="1">
                    <mxGeometry x="170" y="148" width="150" height="30" as="geometry"/>
                </mxCell>
                <mxCell id="17" style="edgeStyle=orthogonalEdgeStyle;rounded=0;html=1;startArrow=none;startFill=0;endArrow=block;endFill=0;elbow=vertical;" parent="108" source="wH90IItwLwQUyDMC7U7Q-38" target="wH90IItwLwQUyDMC7U7Q-70" edge="1">
                    <mxGeometry relative="1" as="geometry">
                        <Array as="points">
                            <mxPoint x="186" y="100"/>
                            <mxPoint x="186" y="100"/>
                        </Array>
                    </mxGeometry>
                </mxCell>
                <mxCell id="wH90IItwLwQUyDMC7U7Q-159" value="Rank" style="swimlane;fontStyle=1;align=center;verticalAlign=top;childLayout=stackLayout;horizontal=1;startSize=30;horizontalStack=0;resizeParent=1;resizeParentMax=0;resizeLast=0;collapsible=1;marginBottom=0;whiteSpace=wrap;html=1;strokeColor=#635528;" parent="78" vertex="1">
                    <mxGeometry x="616" y="224" width="208" height="90" as="geometry">
                        <mxRectangle x="200" y="250" width="80" height="30" as="alternateBounds"/>
                    </mxGeometry>
                </mxCell>
                <mxCell id="wH90IItwLwQUyDMC7U7Q-160" value="- index: Integer" style="text;strokeColor=none;fillColor=none;align=left;verticalAlign=top;spacingLeft=4;spacingRight=4;overflow=hidden;rotatable=0;points=[[0,0.5],[1,0.5]];portConstraint=eastwest;whiteSpace=wrap;html=1;" parent="wH90IItwLwQUyDMC7U7Q-159" vertex="1">
                    <mxGeometry y="30" width="208" height="26" as="geometry"/>
                </mxCell>
                <mxCell id="wH90IItwLwQUyDMC7U7Q-161" value="" style="line;strokeWidth=1;fillColor=none;align=left;verticalAlign=middle;spacingTop=-1;spacingLeft=3;spacingRight=3;rotatable=0;labelPosition=right;points=[];portConstraint=eastwest;strokeColor=inherit;" parent="wH90IItwLwQUyDMC7U7Q-159" vertex="1">
                    <mxGeometry y="56" width="208" height="8" as="geometry"/>
                </mxCell>
                <mxCell id="wH90IItwLwQUyDMC7U7Q-162" value="+ getIndex(): Integer" style="text;strokeColor=none;fillColor=none;align=left;verticalAlign=top;spacingLeft=4;spacingRight=4;overflow=hidden;rotatable=0;points=[[0,0.5],[1,0.5]];portConstraint=eastwest;whiteSpace=wrap;html=1;" parent="wH90IItwLwQUyDMC7U7Q-159" vertex="1">
                    <mxGeometry y="64" width="208" height="26" as="geometry"/>
                </mxCell>
                <mxCell id="wH90IItwLwQUyDMC7U7Q-58" value="&lt;i style=&quot;font-weight: 400;&quot;&gt;&amp;lt;&amp;lt;Interface&amp;gt;&amp;gt;&lt;/i&gt;&lt;br style=&quot;font-weight: 400;&quot;&gt;Literal" style="swimlane;fontStyle=1;align=center;verticalAlign=top;childLayout=stackLayout;horizontal=1;startSize=40;horizontalStack=0;resizeParent=1;resizeParentMax=0;resizeLast=0;collapsible=1;marginBottom=0;whiteSpace=wrap;html=1;strokeColor=#635528;" parent="78" vertex="1">
                    <mxGeometry x="297" y="47" width="306" height="300" as="geometry"/>
                </mxCell>
                <mxCell id="wH90IItwLwQUyDMC7U7Q-65" value="+ setName(String) : void" style="text;strokeColor=none;fillColor=none;align=left;verticalAlign=top;spacingLeft=4;spacingRight=4;overflow=hidden;rotatable=0;points=[[0,0.5],[1,0.5]];portConstraint=eastwest;whiteSpace=wrap;html=1;" parent="wH90IItwLwQUyDMC7U7Q-58" vertex="1">
                    <mxGeometry y="40" width="306" height="26" as="geometry"/>
                </mxCell>
                <mxCell id="158" value="+ getName() : String" style="text;strokeColor=none;fillColor=none;align=left;verticalAlign=top;spacingLeft=4;spacingRight=4;overflow=hidden;rotatable=0;points=[[0,0.5],[1,0.5]];portConstraint=eastwest;whiteSpace=wrap;html=1;" vertex="1" parent="wH90IItwLwQUyDMC7U7Q-58">
                    <mxGeometry y="66" width="306" height="26" as="geometry"/>
                </mxCell>
                <mxCell id="159" value="+ setWeight(Float): void" style="text;strokeColor=none;fillColor=none;align=left;verticalAlign=top;spacingLeft=4;spacingRight=4;overflow=hidden;rotatable=0;points=[[0,0.5],[1,0.5]];portConstraint=eastwest;whiteSpace=wrap;html=1;" vertex="1" parent="wH90IItwLwQUyDMC7U7Q-58">
                    <mxGeometry y="92" width="306" height="26" as="geometry"/>
                </mxCell>
                <mxCell id="wH90IItwLwQUyDMC7U7Q-142" value="+ getWeight(): Float" style="text;strokeColor=none;fillColor=none;align=left;verticalAlign=top;spacingLeft=4;spacingRight=4;overflow=hidden;rotatable=0;points=[[0,0.5],[1,0.5]];portConstraint=eastwest;whiteSpace=wrap;html=1;" parent="wH90IItwLwQUyDMC7U7Q-58" vertex="1">
                    <mxGeometry y="118" width="306" height="26" as="geometry"/>
                </mxCell>
                <mxCell id="wH90IItwLwQUyDMC7U7Q-165" value="+ setVariableValue(String variableName, Value): void" style="text;strokeColor=none;fillColor=none;align=left;verticalAlign=top;spacingLeft=4;spacingRight=4;overflow=hidden;rotatable=0;points=[[0,0.5],[1,0.5]];portConstraint=eastwest;whiteSpace=wrap;html=1;" parent="wH90IItwLwQUyDMC7U7Q-58" vertex="1">
                    <mxGeometry y="144" width="306" height="26" as="geometry"/>
                </mxCell>
                <mxCell id="20" value="+ getVariables(): List&amp;lt;Variable&amp;lt;Value&amp;gt;&amp;gt;" style="text;strokeColor=none;fillColor=none;align=left;verticalAlign=top;spacingLeft=4;spacingRight=4;overflow=hidden;rotatable=0;points=[[0,0.5],[1,0.5]];portConstraint=eastwest;whiteSpace=wrap;html=1;" parent="wH90IItwLwQUyDMC7U7Q-58" vertex="1">
                    <mxGeometry y="170" width="306" height="26" as="geometry"/>
                </mxCell>
                <mxCell id="122" value="+ setRank(Rank) : void" style="text;strokeColor=none;fillColor=none;align=left;verticalAlign=top;spacingLeft=4;spacingRight=4;overflow=hidden;rotatable=0;points=[[0,0.5],[1,0.5]];portConstraint=eastwest;whiteSpace=wrap;html=1;" vertex="1" parent="wH90IItwLwQUyDMC7U7Q-58">
                    <mxGeometry y="196" width="306" height="26" as="geometry"/>
                </mxCell>
                <mxCell id="123" value="+ getRank() : Rank" style="text;strokeColor=none;fillColor=none;align=left;verticalAlign=top;spacingLeft=4;spacingRight=4;overflow=hidden;rotatable=0;points=[[0,0.5],[1,0.5]];portConstraint=eastwest;whiteSpace=wrap;html=1;" vertex="1" parent="wH90IItwLwQUyDMC7U7Q-58">
                    <mxGeometry y="222" width="306" height="26" as="geometry"/>
                </mxCell>
                <mxCell id="wH90IItwLwQUyDMC7U7Q-86" value="+ test(): Boolean" style="text;strokeColor=none;fillColor=none;align=left;verticalAlign=top;spacingLeft=4;spacingRight=4;overflow=hidden;rotatable=0;points=[[0,0.5],[1,0.5]];portConstraint=eastwest;whiteSpace=wrap;html=1;" parent="wH90IItwLwQUyDMC7U7Q-58" vertex="1">
                    <mxGeometry y="248" width="306" height="26" as="geometry"/>
                </mxCell>
                <mxCell id="wH90IItwLwQUyDMC7U7Q-87" value="+ isValuable(): Boolean" style="text;strokeColor=none;fillColor=none;align=left;verticalAlign=top;spacingLeft=4;spacingRight=4;overflow=hidden;rotatable=0;points=[[0,0.5],[1,0.5]];portConstraint=eastwest;whiteSpace=wrap;html=1;" parent="wH90IItwLwQUyDMC7U7Q-58" vertex="1">
                    <mxGeometry y="274" width="306" height="26" as="geometry"/>
                </mxCell>
                <mxCell id="103" value="unary" style="shape=folder;fontStyle=1;tabWidth=55;tabHeight=22;tabPosition=left;html=1;boundedLbl=1;labelInHeader=1;container=1;collapsible=0;recursiveResize=0;" vertex="1" parent="78">
                    <mxGeometry x="17" y="654" width="274" height="188" as="geometry"/>
                </mxCell>
                <mxCell id="wH90IItwLwQUyDMC7U7Q-26" value="OWLDescription" style="swimlane;fontStyle=1;align=center;verticalAlign=top;childLayout=stackLayout;horizontal=1;startSize=40;horizontalStack=0;resizeParent=1;resizeParentMax=0;resizeLast=0;collapsible=1;marginBottom=0;whiteSpace=wrap;html=1;strokeColor=#635528;" parent="103" vertex="1">
                    <mxGeometry x="8" y="147" width="120" height="30" as="geometry"/>
                </mxCell>
                <mxCell id="wH90IItwLwQUyDMC7U7Q-27" value="OWLDataRange" style="swimlane;fontStyle=1;align=center;verticalAlign=top;childLayout=stackLayout;horizontal=1;startSize=40;horizontalStack=0;resizeParent=1;resizeParentMax=0;resizeLast=0;collapsible=1;marginBottom=0;whiteSpace=wrap;html=1;strokeColor=#635528;" parent="103" vertex="1">
                    <mxGeometry x="146" y="147" width="120" height="30" as="geometry"/>
                </mxCell>
                <mxCell id="wH90IItwLwQUyDMC7U7Q-66" value="&lt;i&gt;UnaryLiteral&lt;/i&gt;" style="swimlane;fontStyle=1;align=center;verticalAlign=top;childLayout=stackLayout;horizontal=1;startSize=30;horizontalStack=0;resizeParent=1;resizeParentMax=0;resizeLast=0;collapsible=1;marginBottom=0;whiteSpace=wrap;html=1;strokeColor=#635528;" parent="103" vertex="1" collapsed="1">
                    <mxGeometry x="86" y="32" width="110" height="30" as="geometry">
                        <mxRectangle x="50" y="392" width="220" height="56" as="alternateBounds"/>
                    </mxGeometry>
                </mxCell>
                <mxCell id="wH90IItwLwQUyDMC7U7Q-74" style="edgeStyle=orthogonalEdgeStyle;rounded=0;orthogonalLoop=1;jettySize=auto;html=1;endArrow=block;endFill=0;" parent="103" source="wH90IItwLwQUyDMC7U7Q-27" target="wH90IItwLwQUyDMC7U7Q-66" edge="1">
                    <mxGeometry relative="1" as="geometry">
                        <Array as="points">
                            <mxPoint x="178" y="104"/>
                            <mxPoint x="178" y="104"/>
                        </Array>
                    </mxGeometry>
                </mxCell>
                <mxCell id="wH90IItwLwQUyDMC7U7Q-73" style="edgeStyle=orthogonalEdgeStyle;rounded=0;orthogonalLoop=1;jettySize=auto;html=1;endArrow=block;endFill=0;" parent="103" source="wH90IItwLwQUyDMC7U7Q-26" target="wH90IItwLwQUyDMC7U7Q-66" edge="1">
                    <mxGeometry relative="1" as="geometry">
                        <Array as="points">
                            <mxPoint x="111" y="79"/>
                            <mxPoint x="111" y="79"/>
                        </Array>
                    </mxGeometry>
                </mxCell>
                <mxCell id="147" style="edgeStyle=orthogonalEdgeStyle;rounded=0;jumpStyle=arc;html=1;startArrow=none;startFill=0;endArrow=block;endFill=0;dashed=1;dashPattern=8 8;" edge="1" parent="78" source="143" target="wH90IItwLwQUyDMC7U7Q-58">
                    <mxGeometry relative="1" as="geometry"/>
                </mxCell>
                <mxCell id="148" style="edgeStyle=orthogonalEdgeStyle;rounded=0;jumpStyle=arc;html=1;startArrow=none;startFill=0;endArrow=none;endFill=0;" edge="1" parent="78" source="143" target="wH90IItwLwQUyDMC7U7Q-159">
                    <mxGeometry relative="1" as="geometry">
                        <Array as="points">
                            <mxPoint x="720" y="434"/>
                        </Array>
                    </mxGeometry>
                </mxCell>
                <mxCell id="149" value="1" style="edgeLabel;html=1;align=center;verticalAlign=middle;resizable=0;points=[];" vertex="1" connectable="0" parent="148">
                    <mxGeometry x="0.9273" y="-1" relative="1" as="geometry">
                        <mxPoint x="4" y="-2" as="offset"/>
                    </mxGeometry>
                </mxCell>
                <mxCell id="150" value="1..*" style="edgeLabel;html=1;align=center;verticalAlign=middle;resizable=0;points=[];" vertex="1" connectable="0" parent="148">
                    <mxGeometry x="-0.9673" y="-1" relative="1" as="geometry">
                        <mxPoint x="5" y="7" as="offset"/>
                    </mxGeometry>
                </mxCell>
                <mxCell id="143" value="&lt;i&gt;AbstractLiteral&lt;/i&gt;" style="swimlane;fontStyle=1;align=center;verticalAlign=top;childLayout=stackLayout;horizontal=1;startSize=30;horizontalStack=0;resizeParent=1;resizeParentMax=0;resizeLast=0;collapsible=1;marginBottom=0;whiteSpace=wrap;html=1;strokeColor=#635528;" vertex="1" parent="78">
                    <mxGeometry x="346" y="376" width="208" height="134" as="geometry">
                        <mxRectangle x="200" y="250" width="80" height="30" as="alternateBounds"/>
                    </mxGeometry>
                </mxCell>
                <mxCell id="144" value="# name : String" style="text;strokeColor=none;fillColor=none;align=left;verticalAlign=top;spacingLeft=4;spacingRight=4;overflow=hidden;rotatable=0;points=[[0,0.5],[1,0.5]];portConstraint=eastwest;whiteSpace=wrap;html=1;" vertex="1" parent="143">
                    <mxGeometry y="30" width="208" height="26" as="geometry"/>
                </mxCell>
                <mxCell id="157" value="# variables : List&amp;lt;Variable&amp;lt;Value&amp;gt;&amp;gt;" style="text;strokeColor=none;fillColor=none;align=left;verticalAlign=top;spacingLeft=4;spacingRight=4;overflow=hidden;rotatable=0;points=[[0,0.5],[1,0.5]];portConstraint=eastwest;whiteSpace=wrap;html=1;" vertex="1" parent="143">
                    <mxGeometry y="56" width="208" height="26" as="geometry"/>
                </mxCell>
                <mxCell id="156" value="# valuable : Boolean" style="text;strokeColor=none;fillColor=none;align=left;verticalAlign=top;spacingLeft=4;spacingRight=4;overflow=hidden;rotatable=0;points=[[0,0.5],[1,0.5]];portConstraint=eastwest;whiteSpace=wrap;html=1;" vertex="1" parent="143">
                    <mxGeometry y="82" width="208" height="26" as="geometry"/>
                </mxCell>
                <mxCell id="154" value="#&amp;nbsp;weight : Float" style="text;strokeColor=none;fillColor=none;align=left;verticalAlign=top;spacingLeft=4;spacingRight=4;overflow=hidden;rotatable=0;points=[[0,0.5],[1,0.5]];portConstraint=eastwest;whiteSpace=wrap;html=1;" vertex="1" parent="143">
                    <mxGeometry y="108" width="208" height="26" as="geometry"/>
                </mxCell>
                <mxCell id="151" style="edgeStyle=orthogonalEdgeStyle;rounded=0;jumpStyle=arc;html=1;startArrow=none;startFill=0;endArrow=block;endFill=0;" edge="1" parent="78" source="wH90IItwLwQUyDMC7U7Q-66" target="143">
                    <mxGeometry relative="1" as="geometry">
                        <Array as="points">
                            <mxPoint x="190" y="532"/>
                            <mxPoint x="397" y="532"/>
                        </Array>
                    </mxGeometry>
                </mxCell>
                <mxCell id="152" style="edgeStyle=orthogonalEdgeStyle;rounded=0;jumpStyle=arc;html=1;exitX=0.5;exitY=0;exitDx=0;exitDy=0;startArrow=none;startFill=0;endArrow=block;endFill=0;" edge="1" parent="78" source="wH90IItwLwQUyDMC7U7Q-70" target="143">
                    <mxGeometry relative="1" as="geometry">
                        <Array as="points">
                            <mxPoint x="454" y="525"/>
                            <mxPoint x="454" y="525"/>
                        </Array>
                    </mxGeometry>
                </mxCell>
                <mxCell id="153" style="edgeStyle=orthogonalEdgeStyle;rounded=0;jumpStyle=arc;html=1;exitX=0.5;exitY=0;exitDx=0;exitDy=0;startArrow=none;startFill=0;endArrow=block;endFill=0;" edge="1" parent="78" source="wH90IItwLwQUyDMC7U7Q-72" target="143">
                    <mxGeometry relative="1" as="geometry">
                        <Array as="points">
                            <mxPoint x="767" y="535"/>
                            <mxPoint x="501" y="535"/>
                        </Array>
                    </mxGeometry>
                </mxCell>
                <mxCell id="88" style="edgeStyle=orthogonalEdgeStyle;rounded=0;jumpStyle=arc;html=1;fontSize=12;startArrow=none;startFill=0;endArrow=classic;endFill=1;elbow=vertical;" parent="75" source="wH90IItwLwQUyDMC7U7Q-4" target="wH90IItwLwQUyDMC7U7Q-58" edge="1">
                    <mxGeometry relative="1" as="geometry">
                        <Array as="points">
                            <mxPoint x="1336" y="311"/>
                            <mxPoint x="1336" y="311"/>
                        </Array>
                    </mxGeometry>
                </mxCell>
                <mxCell id="93" value="body" style="edgeLabel;html=1;align=center;verticalAlign=middle;resizable=0;points=[];fontSize=12;" parent="88" vertex="1" connectable="0">
                    <mxGeometry x="-0.3968" relative="1" as="geometry">
                        <mxPoint y="-11" as="offset"/>
                    </mxGeometry>
                </mxCell>
                <mxCell id="94" value="*" style="edgeLabel;html=1;align=center;verticalAlign=middle;resizable=0;points=[];fontSize=12;" parent="88" vertex="1" connectable="0">
                    <mxGeometry x="0.8413" y="2" relative="1" as="geometry">
                        <mxPoint x="8" y="-11" as="offset"/>
                    </mxGeometry>
                </mxCell>
                <mxCell id="wH90IItwLwQUyDMC7U7Q-4" value="Rule" style="swimlane;fontStyle=1;align=center;verticalAlign=top;childLayout=stackLayout;horizontal=1;startSize=30;horizontalStack=0;resizeParent=1;resizeParentMax=0;resizeLast=0;collapsible=1;marginBottom=0;whiteSpace=wrap;html=1;strokeColor=#303F54;" parent="75" vertex="1">
                    <mxGeometry x="1160" y="39" width="240" height="212" as="geometry"/>
                </mxCell>
                <mxCell id="wH90IItwLwQUyDMC7U7Q-64" value="+ testRule(): Boolean" style="text;strokeColor=none;fillColor=none;align=left;verticalAlign=top;spacingLeft=4;spacingRight=4;overflow=hidden;rotatable=0;points=[[0,0.5],[1,0.5]];portConstraint=eastwest;whiteSpace=wrap;html=1;" parent="wH90IItwLwQUyDMC7U7Q-4" vertex="1">
                    <mxGeometry y="30" width="240" height="26" as="geometry"/>
                </mxCell>
                <mxCell id="66" value="+ addLiterals(Literal): void" style="text;strokeColor=none;fillColor=none;align=left;verticalAlign=top;spacingLeft=4;spacingRight=4;overflow=hidden;rotatable=0;points=[[0,0.5],[1,0.5]];portConstraint=eastwest;whiteSpace=wrap;html=1;" parent="wH90IItwLwQUyDMC7U7Q-4" vertex="1">
                    <mxGeometry y="56" width="240" height="26" as="geometry"/>
                </mxCell>
                <mxCell id="141" value="+ getBody(): List&amp;lt;Literal&amp;gt;" style="text;strokeColor=none;fillColor=none;align=left;verticalAlign=top;spacingLeft=4;spacingRight=4;overflow=hidden;rotatable=0;points=[[0,0.5],[1,0.5]];portConstraint=eastwest;whiteSpace=wrap;html=1;" vertex="1" parent="wH90IItwLwQUyDMC7U7Q-4">
                    <mxGeometry y="82" width="240" height="26" as="geometry"/>
                </mxCell>
                <mxCell id="142" value="+ getHead(): Literal" style="text;strokeColor=none;fillColor=none;align=left;verticalAlign=top;spacingLeft=4;spacingRight=4;overflow=hidden;rotatable=0;points=[[0,0.5],[1,0.5]];portConstraint=eastwest;whiteSpace=wrap;html=1;" vertex="1" parent="wH90IItwLwQUyDMC7U7Q-4">
                    <mxGeometry y="108" width="240" height="26" as="geometry"/>
                </mxCell>
                <mxCell id="134" value="+ addRank(Rank): void" style="text;strokeColor=none;fillColor=none;align=left;verticalAlign=top;spacingLeft=4;spacingRight=4;overflow=hidden;rotatable=0;points=[[0,0.5],[1,0.5]];portConstraint=eastwest;whiteSpace=wrap;html=1;" vertex="1" parent="wH90IItwLwQUyDMC7U7Q-4">
                    <mxGeometry y="134" width="240" height="26" as="geometry"/>
                </mxCell>
                <mxCell id="135" value="+ getRanks(Rank): void" style="text;strokeColor=none;fillColor=none;align=left;verticalAlign=top;spacingLeft=4;spacingRight=4;overflow=hidden;rotatable=0;points=[[0,0.5],[1,0.5]];portConstraint=eastwest;whiteSpace=wrap;html=1;" vertex="1" parent="wH90IItwLwQUyDMC7U7Q-4">
                    <mxGeometry y="160" width="240" height="26" as="geometry"/>
                </mxCell>
                <mxCell id="155" value="+ computeWeights(): void" style="text;strokeColor=none;fillColor=none;align=left;verticalAlign=top;spacingLeft=4;spacingRight=4;overflow=hidden;rotatable=0;points=[[0,0.5],[1,0.5]];portConstraint=eastwest;whiteSpace=wrap;html=1;" vertex="1" parent="wH90IItwLwQUyDMC7U7Q-4">
                    <mxGeometry y="186" width="240" height="26" as="geometry"/>
                </mxCell>
                <mxCell id="89" style="edgeStyle=orthogonalEdgeStyle;rounded=0;jumpStyle=arc;html=1;fontSize=12;startArrow=none;startFill=0;endArrow=classic;endFill=1;elbow=vertical;" parent="75" source="wH90IItwLwQUyDMC7U7Q-4" target="wH90IItwLwQUyDMC7U7Q-58" edge="1">
                    <mxGeometry relative="1" as="geometry">
                        <Array as="points">
                            <mxPoint x="1216" y="301"/>
                            <mxPoint x="1216" y="301"/>
                        </Array>
                    </mxGeometry>
                </mxCell>
                <mxCell id="90" value="head" style="edgeLabel;html=1;align=center;verticalAlign=middle;resizable=0;points=[];fontSize=12;" parent="89" vertex="1" connectable="0">
                    <mxGeometry x="-0.8889" relative="1" as="geometry">
                        <mxPoint y="5" as="offset"/>
                    </mxGeometry>
                </mxCell>
                <mxCell id="91" value="0..1" style="edgeLabel;html=1;align=center;verticalAlign=middle;resizable=0;points=[];fontSize=12;" parent="89" vertex="1" connectable="0">
                    <mxGeometry x="0.7937" y="-1" relative="1" as="geometry">
                        <mxPoint x="-14" y="-10" as="offset"/>
                    </mxGeometry>
                </mxCell>
                <mxCell id="81" value="variable" style="shape=folder;fontStyle=1;tabWidth=110;tabHeight=30;tabPosition=left;html=1;boundedLbl=1;labelInHeader=1;container=1;collapsible=0;recursiveResize=0;strokeColor=#9673A6;fontSize=12;fillColor=#e1d5e7;" parent="75" vertex="1">
                    <mxGeometry x="16" y="269" width="760" height="361" as="geometry"/>
                </mxCell>
                <mxCell id="wH90IItwLwQUyDMC7U7Q-149" value="IndividualValue" style="swimlane;fontStyle=1;align=center;verticalAlign=top;childLayout=stackLayout;horizontal=1;startSize=30;horizontalStack=0;resizeParent=1;resizeParentMax=0;resizeLast=0;collapsible=1;marginBottom=0;whiteSpace=wrap;html=1;fillColor=default;strokeColor=#7C5F8A;" parent="81" vertex="1">
                    <mxGeometry x="225" y="229.5" width="160" height="90" as="geometry">
                        <mxRectangle x="200" y="250" width="80" height="30" as="alternateBounds"/>
                    </mxGeometry>
                </mxCell>
                <mxCell id="wH90IItwLwQUyDMC7U7Q-150" value="- value: ?" style="text;strokeColor=none;fillColor=none;align=left;verticalAlign=top;spacingLeft=4;spacingRight=4;overflow=hidden;rotatable=0;points=[[0,0.5],[1,0.5]];portConstraint=eastwest;whiteSpace=wrap;html=1;" parent="wH90IItwLwQUyDMC7U7Q-149" vertex="1">
                    <mxGeometry y="30" width="160" height="26" as="geometry"/>
                </mxCell>
                <mxCell id="wH90IItwLwQUyDMC7U7Q-151" value="" style="line;strokeWidth=1;fillColor=none;align=left;verticalAlign=middle;spacingTop=-1;spacingLeft=3;spacingRight=3;rotatable=0;labelPosition=right;points=[];portConstraint=eastwest;strokeColor=inherit;" parent="wH90IItwLwQUyDMC7U7Q-149" vertex="1">
                    <mxGeometry y="56" width="160" height="8" as="geometry"/>
                </mxCell>
                <mxCell id="wH90IItwLwQUyDMC7U7Q-152" value="+ getValue(): ?" style="text;strokeColor=none;fillColor=none;align=left;verticalAlign=top;spacingLeft=4;spacingRight=4;overflow=hidden;rotatable=0;points=[[0,0.5],[1,0.5]];portConstraint=eastwest;whiteSpace=wrap;html=1;" parent="wH90IItwLwQUyDMC7U7Q-149" vertex="1">
                    <mxGeometry y="64" width="160" height="26" as="geometry"/>
                </mxCell>
                <mxCell id="wH90IItwLwQUyDMC7U7Q-154" style="edgeStyle=orthogonalEdgeStyle;rounded=0;orthogonalLoop=1;jettySize=auto;html=1;exitX=0.5;exitY=0;exitDx=0;exitDy=0;endArrow=block;endFill=0;dashed=1;dashPattern=8 8;" parent="81" source="wH90IItwLwQUyDMC7U7Q-149" target="49" edge="1">
                    <mxGeometry relative="1" as="geometry">
                        <mxPoint x="244.99999999999977" y="172.5" as="targetPoint"/>
                        <Array as="points">
                            <mxPoint x="305" y="196.5"/>
                            <mxPoint x="255" y="196.5"/>
                        </Array>
                    </mxGeometry>
                </mxCell>
                <mxCell id="wH90IItwLwQUyDMC7U7Q-145" value="DataValue" style="swimlane;fontStyle=1;align=center;verticalAlign=top;childLayout=stackLayout;horizontal=1;startSize=30;horizontalStack=0;resizeParent=1;resizeParentMax=0;resizeLast=0;collapsible=1;marginBottom=0;whiteSpace=wrap;html=1;strokeColor=#7C5F8A;" parent="81" vertex="1">
                    <mxGeometry x="50" y="229.5" width="160" height="90" as="geometry">
                        <mxRectangle x="200" y="250" width="80" height="30" as="alternateBounds"/>
                    </mxGeometry>
                </mxCell>
                <mxCell id="wH90IItwLwQUyDMC7U7Q-146" value="- value: ?" style="text;strokeColor=none;fillColor=none;align=left;verticalAlign=top;spacingLeft=4;spacingRight=4;overflow=hidden;rotatable=0;points=[[0,0.5],[1,0.5]];portConstraint=eastwest;whiteSpace=wrap;html=1;" parent="wH90IItwLwQUyDMC7U7Q-145" vertex="1">
                    <mxGeometry y="30" width="160" height="26" as="geometry"/>
                </mxCell>
                <mxCell id="wH90IItwLwQUyDMC7U7Q-147" value="" style="line;strokeWidth=1;fillColor=none;align=left;verticalAlign=middle;spacingTop=-1;spacingLeft=3;spacingRight=3;rotatable=0;labelPosition=right;points=[];portConstraint=eastwest;strokeColor=inherit;" parent="wH90IItwLwQUyDMC7U7Q-145" vertex="1">
                    <mxGeometry y="56" width="160" height="8" as="geometry"/>
                </mxCell>
                <mxCell id="wH90IItwLwQUyDMC7U7Q-148" value="+ getValue(): ?" style="text;strokeColor=none;fillColor=none;align=left;verticalAlign=top;spacingLeft=4;spacingRight=4;overflow=hidden;rotatable=0;points=[[0,0.5],[1,0.5]];portConstraint=eastwest;whiteSpace=wrap;html=1;" parent="wH90IItwLwQUyDMC7U7Q-145" vertex="1">
                    <mxGeometry y="64" width="160" height="26" as="geometry"/>
                </mxCell>
                <mxCell id="wH90IItwLwQUyDMC7U7Q-153" style="edgeStyle=orthogonalEdgeStyle;rounded=0;orthogonalLoop=1;jettySize=auto;html=1;endArrow=block;endFill=0;dashed=1;dashPattern=8 8;" parent="81" source="wH90IItwLwQUyDMC7U7Q-145" target="49" edge="1">
                    <mxGeometry relative="1" as="geometry">
                        <mxPoint x="144.99999999999977" y="172.5" as="targetPoint"/>
                        <Array as="points">
                            <mxPoint x="125" y="203"/>
                            <mxPoint x="175" y="203"/>
                        </Array>
                    </mxGeometry>
                </mxCell>
                <mxCell id="wH90IItwLwQUyDMC7U7Q-138" value="" style="group;strokeColor=none;" parent="81" vertex="1" connectable="0">
                    <mxGeometry x="385" y="43" width="180" height="131" as="geometry"/>
                </mxCell>
                <mxCell id="wH90IItwLwQUyDMC7U7Q-77" value="&lt;span style=&quot;font-style: normal;&quot;&gt;Variable&lt;/span&gt;" style="swimlane;fontStyle=3;align=center;verticalAlign=top;childLayout=stackLayout;horizontal=1;startSize=35;horizontalStack=0;resizeParent=1;resizeParentMax=0;resizeLast=0;collapsible=1;marginBottom=0;whiteSpace=wrap;html=1;strokeColor=#7C5F8A;" parent="wH90IItwLwQUyDMC7U7Q-138" vertex="1">
                    <mxGeometry y="15" width="160" height="119" as="geometry">
                        <mxRectangle x="200" y="190" width="80" height="30" as="alternateBounds"/>
                    </mxGeometry>
                </mxCell>
                <mxCell id="wH90IItwLwQUyDMC7U7Q-112" value="- name: String" style="text;strokeColor=none;fillColor=none;align=left;verticalAlign=top;spacingLeft=4;spacingRight=4;overflow=hidden;rotatable=0;points=[[0,0.5],[1,0.5]];portConstraint=eastwest;whiteSpace=wrap;html=1;" parent="wH90IItwLwQUyDMC7U7Q-77" vertex="1">
                    <mxGeometry y="35" width="160" height="26" as="geometry"/>
                </mxCell>
                <mxCell id="wH90IItwLwQUyDMC7U7Q-113" value="" style="line;strokeWidth=1;align=left;verticalAlign=middle;spacingTop=-1;spacingLeft=3;spacingRight=3;rotatable=0;labelPosition=right;points=[];portConstraint=eastwest;fillStyle=auto;strokeColor=#7C5F8A;" parent="wH90IItwLwQUyDMC7U7Q-77" vertex="1">
                    <mxGeometry y="61" width="160" height="8" as="geometry"/>
                </mxCell>
                <mxCell id="wH90IItwLwQUyDMC7U7Q-114" value="+ getValue(): T" style="text;strokeColor=none;fillColor=none;align=left;verticalAlign=top;spacingLeft=4;spacingRight=4;overflow=hidden;rotatable=0;points=[[0,0.5],[1,0.5]];portConstraint=eastwest;whiteSpace=wrap;html=1;" parent="wH90IItwLwQUyDMC7U7Q-77" vertex="1">
                    <mxGeometry y="69" width="160" height="26" as="geometry"/>
                </mxCell>
                <mxCell id="wH90IItwLwQUyDMC7U7Q-139" value="+ setValue(T): void" style="text;strokeColor=none;fillColor=none;align=left;verticalAlign=top;spacingLeft=4;spacingRight=4;overflow=hidden;rotatable=0;points=[[0,0.5],[1,0.5]];portConstraint=eastwest;whiteSpace=wrap;html=1;" parent="wH90IItwLwQUyDMC7U7Q-77" vertex="1">
                    <mxGeometry y="95" width="160" height="24" as="geometry"/>
                </mxCell>
                <mxCell id="wH90IItwLwQUyDMC7U7Q-136" value="T: Value" style="rounded=0;whiteSpace=wrap;html=1;dashed=1;" parent="wH90IItwLwQUyDMC7U7Q-138" vertex="1">
                    <mxGeometry x="120" width="60" height="30" as="geometry"/>
                </mxCell>
                <mxCell id="wH90IItwLwQUyDMC7U7Q-110" value="&lt;font style=&quot;font-size: 12px;&quot;&gt;&lt;i&gt;A variable must appear&lt;br&gt;&amp;nbsp;at least in one literal&lt;/i&gt;&lt;/font&gt;" style="shape=note2;boundedLbl=1;whiteSpace=wrap;html=1;size=6;verticalAlign=top;align=center;" parent="81" vertex="1">
                    <mxGeometry x="580" y="146.5" width="140" height="55" as="geometry"/>
                </mxCell>
                <mxCell id="95" style="edgeStyle=orthogonalEdgeStyle;rounded=0;jumpStyle=arc;html=1;fontSize=12;fontColor=#000000;startArrow=none;startFill=0;endArrow=none;endFill=0;elbow=vertical;" parent="81" source="49" target="wH90IItwLwQUyDMC7U7Q-77" edge="1">
                    <mxGeometry relative="1" as="geometry">
                        <Array as="points">
                            <mxPoint x="360" y="101"/>
                            <mxPoint x="360" y="101"/>
                        </Array>
                    </mxGeometry>
                </mxCell>
                <mxCell id="49" value="&lt;i style=&quot;font-weight: 400;&quot;&gt;&amp;lt;&amp;lt;Interface&amp;gt;&amp;gt;&lt;/i&gt;&lt;br style=&quot;font-weight: 400;&quot;&gt;Value" style="swimlane;fontStyle=1;align=center;verticalAlign=top;childLayout=stackLayout;horizontal=1;startSize=40;horizontalStack=0;resizeParent=1;resizeParentMax=0;resizeLast=0;collapsible=1;marginBottom=0;whiteSpace=wrap;html=1;fillColor=#FFFFFF;strokeColor=#7C5F8A;" parent="81" vertex="1">
                    <mxGeometry x="95" y="71" width="240" height="92" as="geometry">
                        <mxRectangle x="95" y="71" width="120" height="40" as="alternateBounds"/>
                    </mxGeometry>
                </mxCell>
                <mxCell id="50" value="+ setValue(?) : void" style="text;strokeColor=none;fillColor=none;align=left;verticalAlign=top;spacingLeft=4;spacingRight=4;overflow=hidden;rotatable=0;points=[[0,0.5],[1,0.5]];portConstraint=eastwest;whiteSpace=wrap;html=1;fontColor=#000000;" parent="49" vertex="1">
                    <mxGeometry y="40" width="240" height="26" as="geometry"/>
                </mxCell>
                <mxCell id="56" value="+ getValue() : ?" style="text;align=left;verticalAlign=top;spacingLeft=4;spacingRight=4;overflow=hidden;rotatable=0;points=[[0,0.5],[1,0.5]];portConstraint=eastwest;whiteSpace=wrap;html=1;fillColor=none;fontColor=#000000;" parent="49" vertex="1">
                    <mxGeometry y="66" width="240" height="26" as="geometry"/>
                </mxCell>
                <mxCell id="45" style="rounded=0;jumpStyle=arc;html=1;exitX=0.5;exitY=1;exitDx=0;exitDy=0;exitPerimeter=0;fontSize=12;startArrow=none;startFill=0;endArrow=none;endFill=0;elbow=vertical;dashed=1;" parent="75" source="wH90IItwLwQUyDMC7U7Q-110" edge="1">
                    <mxGeometry relative="1" as="geometry">
                        <mxPoint x="450.9999999999998" y="510.5" as="targetPoint"/>
                    </mxGeometry>
                </mxCell>
                <mxCell id="46" style="rounded=0;jumpStyle=arc;html=1;exitX=0.5;exitY=1;exitDx=0;exitDy=0;exitPerimeter=0;fontSize=12;startArrow=none;startFill=0;endArrow=none;endFill=0;elbow=vertical;dashed=1;" parent="75" source="wH90IItwLwQUyDMC7U7Q-110" edge="1">
                    <mxGeometry relative="1" as="geometry">
                        <mxPoint x="481" y="530.5" as="targetPoint"/>
                    </mxGeometry>
                </mxCell>
                <mxCell id="47" style="rounded=0;jumpStyle=arc;html=1;exitX=0.5;exitY=1;exitDx=0;exitDy=0;exitPerimeter=0;fontSize=12;startArrow=none;startFill=0;endArrow=none;endFill=0;elbow=vertical;dashed=1;" parent="75" source="wH90IItwLwQUyDMC7U7Q-110" edge="1">
                    <mxGeometry relative="1" as="geometry">
                        <mxPoint x="511" y="548" as="targetPoint"/>
                    </mxGeometry>
                </mxCell>
                <mxCell id="36" style="edgeStyle=orthogonalEdgeStyle;rounded=0;jumpStyle=arc;html=1;fontSize=12;startArrow=none;startFill=0;endArrow=classic;endFill=1;elbow=vertical;" parent="75" source="wH90IItwLwQUyDMC7U7Q-66" target="wH90IItwLwQUyDMC7U7Q-77" edge="1">
                    <mxGeometry relative="1" as="geometry">
                        <Array as="points">
                            <mxPoint x="990" y="888"/>
                            <mxPoint x="451" y="888"/>
                        </Array>
                    </mxGeometry>
                </mxCell>
                <mxCell id="42" value="1" style="edgeLabel;html=1;align=center;verticalAlign=middle;resizable=0;points=[];fontSize=12;" parent="36" vertex="1" connectable="0">
                    <mxGeometry x="0.9685" relative="1" as="geometry">
                        <mxPoint x="-10" y="1" as="offset"/>
                    </mxGeometry>
                </mxCell>
                <mxCell id="38" style="edgeStyle=orthogonalEdgeStyle;rounded=0;jumpStyle=arc;html=1;fontSize=12;startArrow=none;startFill=0;endArrow=classic;endFill=1;elbow=vertical;" parent="75" source="wH90IItwLwQUyDMC7U7Q-72" target="wH90IItwLwQUyDMC7U7Q-77" edge="1">
                    <mxGeometry relative="1" as="geometry">
                        <mxPoint x="1546" y="633" as="sourcePoint"/>
                        <Array as="points">
                            <mxPoint x="1550" y="826"/>
                            <mxPoint x="511" y="826"/>
                        </Array>
                    </mxGeometry>
                </mxCell>
                <mxCell id="44" value="1..*" style="edgeLabel;html=1;align=center;verticalAlign=middle;resizable=0;points=[];fontSize=12;" parent="38" vertex="1" connectable="0">
                    <mxGeometry x="0.9731" relative="1" as="geometry">
                        <mxPoint x="-13" y="-3" as="offset"/>
                    </mxGeometry>
                </mxCell>
                <mxCell id="37" style="edgeStyle=orthogonalEdgeStyle;rounded=0;jumpStyle=arc;html=1;fontSize=12;startArrow=none;startFill=0;endArrow=classic;endFill=1;elbow=vertical;" parent="75" source="wH90IItwLwQUyDMC7U7Q-70" target="wH90IItwLwQUyDMC7U7Q-77" edge="1">
                    <mxGeometry relative="1" as="geometry">
                        <Array as="points">
                            <mxPoint x="1248" y="855"/>
                            <mxPoint x="481" y="855"/>
                        </Array>
                    </mxGeometry>
                </mxCell>
                <mxCell id="43" value="2" style="edgeLabel;html=1;align=center;verticalAlign=middle;resizable=0;points=[];fontSize=12;" parent="37" vertex="1" connectable="0">
                    <mxGeometry x="0.9568" relative="1" as="geometry">
                        <mxPoint x="-10" y="-8" as="offset"/>
                    </mxGeometry>
                </mxCell>
                <mxCell id="131" style="edgeStyle=orthogonalEdgeStyle;rounded=0;jumpStyle=arc;html=1;startArrow=none;startFill=0;endArrow=none;endFill=0;" edge="1" parent="75" source="wH90IItwLwQUyDMC7U7Q-64" target="wH90IItwLwQUyDMC7U7Q-159">
                    <mxGeometry relative="1" as="geometry"/>
                </mxCell>
                <mxCell id="132" value="1" style="edgeLabel;html=1;align=center;verticalAlign=middle;resizable=0;points=[];" vertex="1" connectable="0" parent="131">
                    <mxGeometry x="-0.9541" y="1" relative="1" as="geometry">
                        <mxPoint x="-1" y="-10" as="offset"/>
                    </mxGeometry>
                </mxCell>
                <mxCell id="133" value="1..*" style="edgeLabel;html=1;align=center;verticalAlign=middle;resizable=0;points=[];" vertex="1" connectable="0" parent="131">
                    <mxGeometry x="0.9483" relative="1" as="geometry">
                        <mxPoint x="14" as="offset"/>
                    </mxGeometry>
                </mxCell>
                <mxCell id="69" value="java.util" style="shape=folder;fontStyle=1;tabWidth=110;tabHeight=30;tabPosition=left;html=1;boundedLbl=1;labelInHeader=1;container=1;collapsible=0;recursiveResize=0;strokeColor=#B85450;fontSize=12;fillColor=#f8cecc;" parent="WIyWlLk6GJQsqaUBKTNV-1" vertex="1">
                    <mxGeometry x="1782" y="-804.31" width="150" height="100" as="geometry"/>
                </mxCell>
                <mxCell id="67" value="&lt;span style=&quot;font-style: normal;&quot;&gt;Properties&lt;/span&gt;" style="swimlane;fontStyle=3;align=center;verticalAlign=top;childLayout=stackLayout;horizontal=1;startSize=35;horizontalStack=0;resizeParent=1;resizeParentMax=0;resizeLast=0;collapsible=1;marginBottom=0;whiteSpace=wrap;html=1;strokeColor=#592927;" parent="69" vertex="1" collapsed="1">
                    <mxGeometry x="35" y="50" width="80" height="30" as="geometry">
                        <mxRectangle x="510" y="-110" width="200" height="61" as="alternateBounds"/>
                    </mxGeometry>
                </mxCell>
                <mxCell id="72" value="wswrl.parser" style="shape=folder;fontStyle=1;tabWidth=110;tabHeight=30;tabPosition=left;html=1;boundedLbl=1;labelInHeader=1;container=1;collapsible=0;recursiveResize=0;strokeColor=#82B366;fontSize=12;fillColor=#d5e8d4;" parent="WIyWlLk6GJQsqaUBKTNV-1" vertex="1">
                    <mxGeometry x="1387" y="-829" width="315" height="145.38" as="geometry"/>
                </mxCell>
                <mxCell id="58" value="&lt;span style=&quot;font-style: normal;&quot;&gt;RuleParser&lt;/span&gt;" style="swimlane;fontStyle=3;align=center;verticalAlign=top;childLayout=stackLayout;horizontal=1;startSize=35;horizontalStack=0;resizeParent=1;resizeParentMax=0;resizeLast=0;collapsible=1;marginBottom=0;whiteSpace=wrap;html=1;strokeColor=#4A663A;" parent="72" vertex="1">
                    <mxGeometry x="57.5" y="60" width="200" height="61" as="geometry">
                        <mxRectangle x="200" y="190" width="80" height="30" as="alternateBounds"/>
                    </mxGeometry>
                </mxCell>
                <mxCell id="61" value="+ parseStringRule(String) : Rule" style="text;align=left;verticalAlign=top;spacingLeft=4;spacingRight=4;overflow=hidden;rotatable=0;points=[[0,0.5],[1,0.5]];portConstraint=eastwest;whiteSpace=wrap;html=1;fillColor=none;strokeColor=none;" parent="58" vertex="1">
                    <mxGeometry y="35" width="200" height="26" as="geometry"/>
                </mxCell>
                <mxCell id="71" style="edgeStyle=orthogonalEdgeStyle;rounded=0;jumpStyle=arc;html=1;exitX=1;exitY=0.5;exitDx=0;exitDy=0;entryX=0;entryY=0.5;entryDx=0;entryDy=0;fontSize=12;startArrow=none;startFill=0;endArrow=none;endFill=0;elbow=vertical;" parent="WIyWlLk6GJQsqaUBKTNV-1" source="58" target="67" edge="1">
                    <mxGeometry relative="1" as="geometry"/>
                </mxCell>
                <mxCell id="86" value="" style="html=1;verticalAlign=bottom;labelBackgroundColor=none;endArrow=open;endFill=0;dashed=1;rounded=0;fontSize=12;elbow=vertical;jumpStyle=arc;edgeStyle=orthogonalEdgeStyle;" parent="WIyWlLk6GJQsqaUBKTNV-1" source="58" target="wH90IItwLwQUyDMC7U7Q-4" edge="1">
                    <mxGeometry width="160" relative="1" as="geometry">
                        <mxPoint x="1366" y="-746" as="sourcePoint"/>
                        <mxPoint x="1526" y="-746" as="targetPoint"/>
                    </mxGeometry>
                </mxCell>
                <mxCell id="87" value="« creates »" style="edgeLabel;html=1;align=center;verticalAlign=middle;resizable=0;points=[];fontSize=12;" parent="86" vertex="1" connectable="0">
                    <mxGeometry x="-0.2121" relative="1" as="geometry">
                        <mxPoint x="13" y="-1" as="offset"/>
                    </mxGeometry>
                </mxCell>
            </root>
        </mxGraphModel>
    </diagram>
</mxfile>